<?xml version="1.0" encoding="UTF-8"?>
<svg id="Camada_2" data-name="Camada 2" xmlns="http://www.w3.org/2000/svg" viewBox="0 0 150 150.04">
  <defs>
    <style>
      .cls-1 {
        fill: #fff;
      }
    </style>
  </defs>
  <g id="Camada_1-2" data-name="Camada 1">
    <path class="cls-1" d="m68.42,0c4.67,0,9.34,0,14.01,0-1.13.1-2.27.2-3.4.3,19.27,1,35.77,8.46,49.22,22.09,13.44,13.62,20.78,30.19,21.51,49.48.08-.6.16-1.2.24-1.8v9.34c-.07-.23-.14-.47-.24-.78-1.07,20.05-8.77,37.05-23.18,50.78-14.43,13.74-31.91,20.8-51.79,20.64C32.78,149.71,1.76,117.09.08,78.8c-.78-17.83,3.87-34.14,14.64-48.42C28.77,11.75,47.64,1.85,70.53.27c-.43-.05-1.27-.16-2.11-.27Zm-9.65,80.36h0c5.23,0,10.45,0,15.68,0,.58,0,1.17,0,1.75.08,1.06.16,1.33.86.71,1.71-1.42,1.95-2.85,3.91-4.27,5.86-6.26,8.64-12.52,17.28-18.78,25.92-1.4,1.93-2.79,3.88-4.19,5.81-.46.64-.36,1.18.21,1.68.62.55,1.22.43,1.78-.09,1.23-1.13,2.45-2.26,3.67-3.4,4.87-4.55,9.74-9.11,14.62-13.67,8.81-8.24,17.62-16.48,26.43-24.72,4.02-3.76,8.05-7.51,12.07-11.27.36-.34.78-.67,1.01-1.09.16-.29.12-.77,0-1.1-.25-.71-.9-.7-1.53-.7-10.54,0-21.07,0-31.61,0-.28,0-.56.02-.83,0-.7-.08-1.13-.7-.91-1.38.11-.34.28-.66.45-.98,4.43-8.14,8.87-16.28,13.31-24.42,1.77-3.24,3.53-6.48,5.31-9.72.34-.62.2-1.09-.32-1.54-.52-.44-1.02-.54-1.55-.05-.63.58-1.29,1.14-1.9,1.75-11.26,11.23-22.51,22.47-33.77,33.69-4.59,4.57-9.22,9.1-13.82,13.66-.67.66-1.35,1.33-1.96,2.05-.6.71-.21,1.66.7,1.81.46.08.94.1,1.41.1,5.45,0,10.9,0,16.35,0Z"/>
  </g>
</svg>