<?xml version="1.0" encoding="UTF-8"?>
<svg id="Camada_2" data-name="Camada 2" xmlns="http://www.w3.org/2000/svg" viewBox="0 0 150 169.34">
  <defs>
    <style>
      .cls-1 {
        fill: #fff;
      }
    </style>
  </defs>
  <g id="Camada_1-2" data-name="Camada 1">
    <path class="cls-1" d="m148.94,0C99.65,0,50.35,0,1.06,0c-.35,0-.71.02-1.06.03.47.5.28,1.15.29,1.7.02,1.93.3,3.84.42,5.76.1,1.59.34,3.18.49,4.77.15,1.65.24,3.31.38,4.96.22,2.46.52,4.91.66,7.37.09,1.57.34,3.13.42,4.7.12,2.2.44,4.39.65,6.59.15,1.62.25,3.25.39,4.88.16,1.79.44,3.58.49,5.37.04,1.56.36,3.08.42,4.63.07,1.8.32,3.59.48,5.38.14,1.48.26,2.95.39,4.43.15,1.76.27,3.53.48,5.29.21,1.76.28,3.54.4,5.31.08,1.28.26,2.55.41,3.81.12,1.01.14,2.03.27,3.04.33,2.57.58,5.15.71,7.73.12,2.36.5,4.69.58,7.06.07,1.94.27,3.89.53,5.81.27,1.99.3,3.99.51,5.98.3,2.92.61,5.84.87,8.77.16,1.83.22,3.66.39,5.49.19,2.14.49,4.27.67,6.41.12,1.48.1,2.98.4,4.43.58,2.75.26,5.56.69,8.31.46,2.91.43,5.87.84,8.79.2,1.38.16,2.79.37,4.17.23,1.54.23,1.54,1.82,1.95,2.03.53,4.05,1.08,6.08,1.63,3.44.94,6.88,1.88,10.32,2.82,2.35.65,4.69,1.31,7.04,1.96,2.54.7,5.09,1.39,7.63,2.09,1.74.48,3.47.98,5.21,1.46,3.22.89,6.44,1.79,9.66,2.67,3.55.98,7.12,1.91,10.65,2.95.79.23,1.68.25,2.36.82h.89c.18-.15.35-.3.53,0h.35c-.14-.32.11-.3.3-.35,4.44-1.21,8.87-2.41,13.31-3.63,1.78-.49,3.58-.92,5.32-1.5,2.42-.8,4.93-1.22,7.34-2.02,2.63-.87,5.33-1.45,7.99-2.19,5.84-1.64,11.69-3.24,17.53-4.85,2.52-.69,5.03-1.38,7.55-2.07.67-.18,1.05-.52,1.04-1.29-.02-2.63.39-5.23.57-7.85.22-3.24.61-6.48.87-9.73.21-2.72.48-5.45.73-8.16.19-2.04.41-4.1.6-6.14.16-1.74.37-3.48.44-5.23.09-2.08.43-4.16.63-6.24.11-1.13.16-2.27.26-3.41.15-1.67.32-3.35.47-5.02.14-1.57.26-3.14.4-4.71.15-1.62.32-3.23.47-4.85.09-.93.16-1.86.23-2.79.2-2.4.45-4.8.64-7.2.14-1.8.38-3.59.44-5.4.07-1.97.36-3.93.55-5.9.12-1.22.22-2.44.33-3.66.16-1.67.33-3.34.48-5.02.14-1.57.26-3.14.4-4.71.15-1.62.32-3.23.47-4.85.15-1.65.25-3.31.41-4.96.16-1.65.33-3.3.45-4.94.13-1.74.38-3.48.45-5.23.07-1.65.38-3.29.45-4.94.07-1.49.23-2.96.41-4.43.3-2.45.28-4.93.66-7.38.25-1.63.25-3.31.4-4.96.15-1.62.38-3.23.49-4.85.09-1.33.13-2.66.34-3.99.26-1.61.29-3.25.41-4.88-.35-.01-.71-.04-1.06-.04Zm-27.35,35.57c-.13.86-.19,1.75-.24,2.6-.14,2.39-.41,4.75-.73,7.11-.15,1.09-.06,2.21-.18,3.32-.36,3.39-.59,6.79-.92,10.18-.13,1.39-.18,2.79-.36,4.17-.19,1.47.01,2.97-.48,4.41-.19.56-.15,1.22-.16,1.81-.02,1.53-.29,3.05-.25,4.58.02.84-.24,1.66-.38,2.48-.22,1.28-.18,2.56-.25,3.83-.12,2.3-.58,4.55-.65,6.86-.09,2.87-.66,5.72-.78,8.58-.1,2.28-.53,4.52-.59,6.81-.05,2.06-.44,4.11-.65,6.16-.13,1.3-.14,2.62-.24,3.93-.18,2.34-.55,4.67-.64,7.01-.05,1.26-.25,2.49-.46,3.71-.17.99.03,1.98-.25,2.94-.13.47-.55.48-.87.57-2.75.86-5.51,1.65-8.3,2.37-4.01,1.03-7.96,2.26-11.95,3.36-4.47,1.24-8.96,2.42-13.42,3.66-.7.19-1.42.32-2.09.57-1.21.46-2.34.28-3.51-.07-1.14-.35-2.36-.42-3.46-.79-1.15-.39-2.33-.65-3.47-1.03-2.05-.67-4.14-1.16-6.21-1.73-2.81-.78-5.6-1.62-8.42-2.4-2.29-.64-4.6-1.2-6.89-1.83-1.81-.5-3.6-1.03-5.39-1.6-.85-.27-1.79-.19-2.56-.73-.28-.2-.54-.41-.52-.74.07-.97-.17-1.92-.19-2.88-.03-1.95-.29-3.88-.49-5.82-.09-.83-.17-1.68-.21-2.52-.08-1.8-.31-3.59-.5-5.38-.08-.78-.18-1.56-.22-2.34-.09-1.95-.28-3.88-.52-5.81-.12-1.01-.13-2.03-.2-3.05-.04-.64.24-.83.88-.82,5.55.02,11.1.01,16.65.01,1.01,0,1.72.64,1.5,1.59-.23.99.05,1.91.13,2.85.16,1.94.33,3.88.5,5.81.12,1.41.34,2.81.5,4.22.06.5.35.59.82.68,1.22.25,2.4.68,3.62.96,2.04.47,4.04,1.06,6.07,1.57,1.76.44,3.52.99,5.28,1.51,1.45.43,2.91.81,4.37,1.19.74.19,1.47-.02,2.18-.21,4.83-1.28,9.66-2.59,14.48-3.89,1.4-.38,2.8-.8,4.21-1.12.64-.14.81-.47.8-1.04-.03-3.01.59-5.96.75-8.96.13-2.54.46-5.08.67-7.63.15-1.93.43-3.86.69-5.78.13-.96.02-1.12-.94-1.14-7.17-.15-14.34.03-21.51-.08-12.25-.19-24.49-.03-36.74-.08-1.65,0-3.29.08-4.94.15-.76.03-.98-.29-1.03-1.05-.1-1.82-.41-3.64-.48-5.46-.06-1.49-.25-2.96-.39-4.43-.17-1.82-.18-3.66-.52-5.47-.03-.14-.01-.29-.01-.44-.01-1.75-.01-1.72,1.67-1.72,13.87,0,27.74,0,41.61,0,7.85,0,15.71,0,23.56.02,1.32,0,1.79-.27,1.6-1.51-.16-.99.02-1.93.14-2.84.13-1.01-.11-2.08.38-3.09.15-.31,0-.92.05-1.41.17-1.83.24-3.66.39-5.49.12-1.36.29-2.71.47-4.06.09-.63.05-.94-.76-.94-11.66.03-23.31.02-34.97.02v.07c-11.22,0-22.43,0-33.65,0-.5,0-1,0-1.5.04-.71.05-.91-.37-.95-.96-.18-2.52-.42-5.03-.69-7.54-.24-2.19-.26-4.42-.59-6.59-.15-.97.26-1.97-.27-2.93-.23-.42.15-.83.71-.83,29.76,0,59.53,0,89.29-.02,1.12,0,2.22.29,3.34.16.42-.05.5.19.48.53-.07,1.28-.05,2.58-.25,3.84Z"/>
  </g>
</svg>