<?xml version="1.0" encoding="UTF-8"?>
<svg id="Camada_2" data-name="Camada 2" xmlns="http://www.w3.org/2000/svg" viewBox="0 0 150 169.57">
  <defs>
    <style>
      .cls-1 {
        fill: #fff;
      }
    </style>
  </defs>
  <g id="Camada_1-2" data-name="Camada 1">
    <path class="cls-1" d="m0,0c.07,1.05.12,1.92.2,2.79.51,5.6,1.06,11.2,1.55,16.8.89,10.21,1.72,20.42,2.63,30.63.9,10.01,1.92,20,2.8,30.01.9,10.21,1.68,20.43,2.57,30.64,1.14,13.11,2.41,26.21,3.46,39.33.17,2.11.97,2.95,2.86,3.47,14.37,3.95,28.72,7.98,43.08,11.98,5.11,1.42,10.23,3.91,15.35,3.91,5.21,0,10.43-2.4,15.62-3.83,14.57-4.01,29.14-8.05,43.7-12.09,1.43-.4,2.83-.65,2.95-2.74.3-5.32.8-10.62,1.26-15.93.85-9.91,1.7-19.82,2.6-29.73.91-10.01,1.93-20,2.82-30.01.9-10.11,1.63-20.24,2.54-30.35,1.11-12.3,2.34-24.6,3.49-36.9.25-2.65.35-5.31.52-8H0Zm120.13,50.06H48.13c.69,6.45,1.33,12.51,2.01,18.87h67.69c-.48,6.32-.91,12.29-1.4,18.27-.71,8.62-1.46,17.23-2.19,25.85-.33,3.91-.52,7.84-1.07,11.71-.14.96-1.26,2.3-2.19,2.56-11.57,3.27-23.18,6.38-34.79,9.5-.63.17-1.39.19-2.02.03-11.9-3.16-23.8-6.33-35.67-9.6-.81-.22-1.9-1.27-1.99-2.03-.93-8.09-1.68-16.2-2.46-24.3-.1-1-.01-2.01-.01-3.25h18.27c.47,4.03,1.07,8.17,1.39,12.33.12,1.62.71,2.23,2.2,2.63,6,1.62,11.96,3.41,17.95,5.05.8.22,1.78.12,2.6-.1,5.88-1.63,11.75-3.28,17.59-5.05.86-.26,2.07-1.18,2.14-1.9.75-7.1,1.29-14.22,1.88-21.33.03-.39-.07-.79-.15-1.52H33.1c-1.76-19.06-3.48-37.8-5.22-56.72h93.72c-.49,6.34-.96,12.5-1.47,19Z"/>
  </g>
</svg>