<?xml version="1.0" encoding="UTF-8"?>
<svg xmlns="http://www.w3.org/2000/svg" xmlns:xlink="http://www.w3.org/1999/xlink" viewBox="0 0 677.94 580.76">
  <defs>
    <style>
      .cls-1 {
        fill: #4f34bf;
      }

      .cls-1, .cls-2, .cls-3, .cls-4, .cls-5, .cls-6 {
        stroke-width: 0px;
      }

      .cls-2 {
        fill: url(#Gradiente_sem_nome_6-3);
      }

      .cls-2, .cls-3, .cls-4 {
        mix-blend-mode: overlay;
      }

      .cls-7 {
        isolation: isolate;
      }

      .cls-3 {
        fill: url(#Gradiente_sem_nome_6-2);
      }

      .cls-4 {
        fill: url(#Gradiente_sem_nome_6);
      }

      .cls-5 {
        fill: #886cff;
      }

      .cls-6 {
        fill: #6d3eff;
      }
    </style>
    <linearGradient id="Gradiente_sem_nome_6" data-name="Gradiente sem nome 6" x1="0" y1="176.15" x2="79.01" y2="176.15" gradientUnits="userSpaceOnUse">
      <stop offset="0" stop-color="#fff"/>
      <stop offset="1" stop-color="#fff" stop-opacity="0"/>
    </linearGradient>
    <linearGradient id="Gradiente_sem_nome_6-2" data-name="Gradiente sem nome 6" x1="388.82" y1="268.22" x2="677.94" y2="268.22" xlink:href="#Gradiente_sem_nome_6"/>
    <linearGradient id="Gradiente_sem_nome_6-3" data-name="Gradiente sem nome 6" x1="277.37" y1="334.58" x2="491.82" y2="334.58" xlink:href="#Gradiente_sem_nome_6"/>
  </defs>
  <g class="cls-7">
    <g id="Camada_2" data-name="Camada 2">
      <g id="Camada_1-2" data-name="Camada 1">
        <g>
          <path class="cls-5" d="m576.77,491.96c-8.52-15.46-19.2-31.26-33.02-42.49-4.69,14.63-12.33,28.49-23.59,40.51-6.14,6.55-12.75,11.88-19.5,16.25-.12-.06-.14-.08-.26-.14v-38.52l-.11-2.16c-1.12-22.37-19.59-39.94-41.99-39.94h-25.35c-23.34,0-42.27,18.92-42.27,42.27h67.45v31.86c-.76,6.06-2.79,13.28-8.2,18.87-23.49,24.24-103.77,10.41-131.83-42.7-18.45-34.92-10.07-78.79,10.93-105.81,12.69-16.34,27.43-23.21,30.6-24.63,23.04-10.33,59.02-12.41,81.09,9.99,11.82,12,15.56,26.87,16.82,36.35.19,0,.38,0,.57,0,25.64.26,42.17-27.56,29.18-49.66-.12-.21-.25-.42-.37-.63-1.72-2.88-15.61-25.52-41.86-39.23-41.13-21.48-95.3-12.02-132.44,15.56-52.87,39.26-54.41,102.73-54.48,111.94-.04,6.06.35,57.2,37.31,98.51,60.1,67.17,177.5,64.3,254.95,23.29,5.09-2.7,21.61-11.74,40.92-28.38-4.18-10.71-9.04-21.14-14.55-31.13Z"/>
          <path class="cls-1" d="m258.56,231c72.53-89.5,183.56-137.79,297.98-152.32-34.32-21.46-89.39-46.16-160.03-45.02-30.59.49-55.77,5.91-73.05,10.79-18.05,5.48-35.24,12.93-51.32,22.11-.11-.06-.14-.08-.25-.14V.17c-.07-.07-.1-.1-.17-.17-75.01.05-142.92,30.46-192.08,79.64C30.46,128.8.05,196.71,0,271.72c.07.07.1.1.17.17l228.28,1.92c9.03-14.85,19.04-29.15,30.11-42.8Zm-70.58-85.1c-22.71,3.73-42.06-15.63-38.33-38.33,2.26-13.75,13.35-24.84,27.1-27.09,22.71-3.72,42.06,15.63,38.33,38.33-2.26,13.75-13.35,24.84-27.1,27.1Z"/>
          <g>
            <g>
              <path class="cls-6" d="m662.91,231.94c-8.14-29.16-22.55-78.49-66.37-122.71,0,0-76.09-77.57-200.03-75.57-30.59.49-55.77,5.91-73.05,10.79-18.05,5.48-35.24,12.93-51.32,22.11-.11-.06-.14-.08-.25-.14V.17c-.07-.07-.1-.1-.17-.17-75.01.05-142.92,30.46-192.08,79.64C30.46,128.8.05,196.71,0,271.72c.07.07.1.1.17.17l271.72,2.28v28.94h28.45c16.03,0,29.07-12.61,29.85-28.45l90.6.76c14.62.44,49.89,3.57,81.43,29.05,4.56,3.69,15.52,12.98,24.83,26.98,26.6,40.02,36.12,112.67-6.89,158.53-6.14,6.55-12.75,11.88-19.5,16.25-.12-.06-.14-.08-.26-.14v-38.52l-.11-2.16c-1.12-22.37-19.59-39.94-41.99-39.94h-25.35c-23.34,0-42.27,18.92-42.27,42.27h67.45v31.86c-.76,6.06-2.79,13.28-8.2,18.87-23.49,24.24-103.77,10.41-131.83-42.7-18.45-34.92-10.07-78.79,10.93-105.81,12.69-16.34,27.43-23.21,30.6-24.63,23.04-10.33,59.02-12.41,81.09,9.99,11.82,12,15.56,26.87,16.82,36.35.19,0,.38,0,.57,0,25.64.26,42.17-27.56,29.18-49.66-.12-.21-.25-.42-.37-.63-1.72-2.88-15.61-25.52-41.86-39.23-41.13-21.48-95.3-12.02-132.44,15.56-52.87,39.26-54.41,102.73-54.48,111.94-.04,6.06.35,57.2,37.31,98.51,60.1,67.17,177.5,64.3,254.95,23.29,8.4-4.45,47.86-26.13,79.72-70.72,73.52-102.89,38.95-226.75,32.79-248.81ZM215.08,118.8c-2.26,13.75-13.35,24.84-27.1,27.1-22.71,3.73-42.06-15.63-38.33-38.33,2.26-13.75,13.35-24.84,27.1-27.09,22.71-3.72,42.06,15.63,38.33,38.33Z"/>
              <circle class="cls-6" cx="190.13" cy="105.42" r="14.54" transform="translate(-14.43 31.82) rotate(-9.22)"/>
            </g>
            <g>
              <path class="cls-5" d="m576.77,491.96c-8.52-15.46-19.2-31.26-33.02-42.49-4.69,14.63-12.33,28.49-23.59,40.51-6.14,6.55-12.75,11.88-19.5,16.25-.12-.06-.14-.08-.26-.14v-38.52l-.11-2.16c-1.12-22.37-19.59-39.94-41.99-39.94h-25.35c-23.34,0-42.27,18.92-42.27,42.27h67.45v31.86c-.76,6.06-2.79,13.28-8.2,18.87-23.49,24.24-103.77,10.41-131.83-42.7-18.45-34.92-10.07-78.79,10.93-105.81,12.69-16.34,27.43-23.21,30.6-24.63,23.04-10.33,59.02-12.41,81.09,9.99,11.82,12,15.56,26.87,16.82,36.35.19,0,.38,0,.57,0,25.64.26,42.17-27.56,29.18-49.66-.12-.21-.25-.42-.37-.63-1.72-2.88-15.61-25.52-41.86-39.23-41.13-21.48-95.3-12.02-132.44,15.56-52.87,39.26-54.41,102.73-54.48,111.94-.04,6.06.35,57.2,37.31,98.51,60.1,67.17,177.5,64.3,254.95,23.29,5.09-2.7,21.61-11.74,40.92-28.38-4.18-10.71-9.04-21.14-14.55-31.13Z"/>
              <path class="cls-1" d="m258.56,231c72.53-89.5,183.56-137.79,297.98-152.32-34.32-21.46-89.39-46.16-160.03-45.02-30.59.49-55.77,5.91-73.05,10.79-18.05,5.48-35.24,12.93-51.32,22.11-.11-.06-.14-.08-.25-.14V.17c-.07-.07-.1-.1-.17-.17-75.01.05-142.92,30.46-192.08,79.64C30.46,128.8.05,196.71,0,271.72c.07.07.1.1.17.17l228.28,1.92c9.03-14.85,19.04-29.15,30.11-42.8Zm-70.58-85.1c-22.71,3.73-42.06-15.63-38.33-38.33,2.26-13.75,13.35-24.84,27.1-27.09,22.71-3.72,42.06,15.63,38.33,38.33-2.26,13.75-13.35,24.84-27.1,27.1Z"/>
              <path class="cls-4" d="m61.28,107.99c5.69-9.9,11.64-19.12,17.73-27.7C30.21,129.41.05,197.03,0,271.72c.07.07.1.1.17.17l14.07.12c2.48-45.42,13.07-104.85,47.05-164.01Z"/>
              <circle class="cls-1" cx="190.13" cy="105.42" r="14.54" transform="translate(-14.43 31.82) rotate(-9.22)"/>
            </g>
          </g>
          <path class="cls-3" d="m662.91,231.94c-4.43-16.71-7.9-27.6-12.6-39.28-2.82-7-5.35-12.48-7.21-16.42-10.1-21.5-24.65-44.89-46.56-67,0,0-76.09-77.57-200.03-75.57-2.62.04-5.15.17-7.69.28,113.71,9.24,212.68,80.37,255.35,183.79,60.38,146.33-25.58,275.82-31.96,285.08,23.5-24.95,36.69-48.86,44.05-64.85,0,0,33.16-72.05,17.46-159.78-2.96-16.51-9.96-43.04-10.81-46.24Z"/>
          <path class="cls-2" d="m362.44,309.42c55.33-8.52,112.82,12.33,122.34,69.36,7.77-10.04,9.82-24.3,2.51-36.75-.12-.21-.25-.42-.37-.63-1.72-2.88-15.61-25.52-41.86-39.23-41.13-21.48-95.3-12.02-132.44,15.56-15.99,11.87-27.26,25.96-35.24,40.1,21.09-25.04,48.72-42.81,85.07-48.41Z"/>
        </g>
      </g>
    </g>
  </g>
</svg>