<?xml version="1.0" encoding="UTF-8"?>
<svg id="Camada_2" data-name="Camada 2" xmlns="http://www.w3.org/2000/svg" viewBox="0 0 150 129.21">
  <defs>
    <style>
      .cls-1 {
        fill: #fff;
      }
    </style>
  </defs>
  <g id="Camada_1-2" data-name="Camada 1">
    <g>
      <path class="cls-1" d="m106.94,38.24c0,11.18-.03,22.36.03,33.53.01,2.14-.88,3.5-2.69,4.53-7.53,4.29-15.04,8.63-22.55,12.96-2.5,1.44-3.35,3.9-2.03,6.09.41.68,1.06,1.32,1.75,1.72,4.17,2.44,8.39,4.8,12.59,7.2,1.67.95,3.31.93,4.97-.02,9.07-5.21,18.14-10.42,27.21-15.62,1.57-.9,2.44-2.18,2.45-4.04.04-7.67.18-15.35.13-23.02-.01-2.39.87-3.89,2.94-5.02,3.91-2.13,7.81-4.32,11.59-6.67,3.09-1.92,6.67-.09,6.65,3.94-.06,14.1-.03,28.19-.01,42.29,0,2.11-.83,3.61-2.71,4.68-16.06,9.18-32.11,18.4-48.14,27.63-1.76,1.02-3.39,1.05-5.17.03-12.57-7.22-25.16-14.41-37.76-21.6-1.64-.94-2.44-2.23-2.43-4.16.04-6.8.04-13.6,0-20.39,0-.98.35-1.49,1.17-1.95,9.88-5.64,19.73-11.32,29.62-16.95.91-.52,1.29-1.09,1.28-2.15-.04-6.63,0-13.26,0-19.89,0-4.14-3.44-6.11-7.03-4.04-7.4,4.26-14.83,8.48-22.19,12.82-2.12,1.25-3.94,1.23-6.05-.02-7.43-4.38-14.93-8.64-22.41-12.93-2.77-1.59-5.81-.51-6.65,2.36-.16.55-.16,1.15-.16,1.73,0,12.72,0,25.44,0,38.16,0,2.3-1.1,3.95-3.17,4.32-.91.16-2.05.02-2.85-.42-4.43-2.41-8.79-4.94-13.16-7.46C.52,74.95-.01,73.42,0,71.65c.04-7.09.11-14.18.13-21.27.04-15.26.15-30.53.02-45.79C.12.69,3.65-1.11,6.83.74c14.59,8.48,29.26,16.82,43.88,25.26,1.99,1.15,3.76,1.15,5.74.01,14.62-8.43,29.28-16.8,43.87-25.26,2.53-1.46,5.63-.77,6.43,1.99.17.58.17,1.23.17,1.85,0,11.22,0,22.44,0,33.66Z"/>
      <path class="cls-1" d="m129.38,19.14c0-2.42.02-4.84,0-7.26-.02-1.69.65-2.97,2.11-3.84,4.04-2.42,8.05-4.88,12.11-7.26,2.99-1.75,6.24-.04,6.33,3.43.13,5,.07,10.01.01,15.01-.02,1.59-.78,2.86-2.2,3.7-4.05,2.41-8.06,4.87-12.13,7.24-3.05,1.78-6.22-.1-6.23-3.64-.01-2.46,0-4.92,0-7.38Z"/>
    </g>
  </g>
</svg>