<?xml version="1.0" encoding="UTF-8"?>
<svg id="Camada_2" data-name="Camada 2" xmlns="http://www.w3.org/2000/svg" viewBox="0 0 150 149.33">
  <defs>
    <style>
      .cls-1 {
        fill: #fff;
      }
    </style>
  </defs>
  <g id="Camada_1-2" data-name="Camada 1">
    <path class="cls-1" d="m0,83.63c0-5.64,0-11.28,0-16.92.12.95.25,1.89.37,2.85,1.02-18.59,8.42-34.38,21.48-47.44C34.88,9.09,50.7,1.67,69.2.3c-.41-.09-.88-.2-1.36-.3,5.33,0,10.67,0,16,0-1.19.1-2.37.21-3.56.31,3.6.15,7.15.51,10.62,1.42,3.42.9,6.87,1.79,10.18,3.02,3.34,1.24,6.61,2.74,9.74,4.43,3.13,1.7,6.18,3.61,9.04,5.74,2.84,2.11,5.53,4.45,8.04,6.94,2.52,2.51,4.9,5.21,7.04,8.06,2.14,2.84,4.07,5.87,5.78,8.99,1.71,3.11,3.22,6.37,4.47,9.69,1.24,3.29,2.23,6.71,3.01,10.14.77,3.42,1.14,6.93,1.68,10.4-.04,0-.07,0-.11,0,.08-.37.16-.74.24-1.12v12.61c-.07-.08-.14-.16-.18-.21-2.38,24.29-13.87,43.18-34.03,57-.16-.18-.27-.26-.35-.38-1.27-1.91-2.54-3.82-3.81-5.74-7.15-10.79-14.29-21.59-21.44-32.38-5.9-8.9-11.81-17.79-17.73-26.68-5.32-7.99-10.65-15.97-15.96-23.96-.55-.82-1.26-1.33-2.25-1.34-1.64-.02-3.28-.05-4.91.02-1.36.05-2.51,1.23-2.57,2.57-.04.94.03,1.88.03,2.82-.01,16.9-.03,33.79-.05,50.69,0,1.24-.07,2.49-.04,3.73.03,1.48,1.31,2.72,2.79,2.74,1.17.01,2.33,0,3.5,0,1.98,0,3-1.04,3.01-3.02.06-11.92.12-23.83.17-35.75.01-2.19,0-4.38,0-6.58.09-.04.19-.08.28-.12,17.47,25.8,34.73,51.75,54.14,76.3-.75.42-1.29.75-1.85,1.02-8.08,3.97-16.54,6.6-25.54,7.51-7.28.74-14.53.58-21.72-.77-14.43-2.71-27.09-9.01-37.78-19.04-9.09-8.52-15.7-18.7-19.69-30.5-1.88-5.56-3.41-11.2-3.38-17.14,0-.29-.06-.58-.1-.87-.04,0-.09,0-.13,0-.13,1.02-.27,2.04-.4,3.06Zm102.26,16.32c.08-.03.16-.07.25-.1.01-.26.04-.53.04-.79-.02-2.16-.06-4.31-.06-6.47-.01-12.66,0-25.33-.02-37.99,0-2.35,0-4.7-.05-7.05-.03-1.38-.98-2.51-2.31-2.61-1.57-.11-3.16-.08-4.74,0-1.11.05-1.85.76-2.14,1.8-.18.65-.23,1.36-.23,2.04-.05,12.03-.09,24.06-.1,36.08,0,.57.2,1.22.51,1.7,2.69,4.16,5.43,8.28,8.15,12.42.22.33.47.65.7.97Z"/>
  </g>
</svg>