<?xml version="1.0" encoding="UTF-8"?>
<svg id="Camada_2" data-name="Camada 2" xmlns="http://www.w3.org/2000/svg" viewBox="0 0 150 133.44">
  <defs>
    <style>
      .cls-1 {
        fill: #fff;
      }
    </style>
  </defs>
  <g id="Camada_1-2" data-name="Camada 1">
    <g>
      <path class="cls-1" d="m102.12,0C103.96,0,105.79,0,107.63,0c.07.04.14.1.22.12,4.53.83,7.85,3.35,10.13,7.29,2.15,3.72,2.94,7.83,3.2,12.05.37,6-.39,11.91-1.61,17.77-.3,1.43-.63,2.86-.96,4.33.31.1.59.19.87.28,5.96,1.75,11.75,3.92,17.15,7.04,3.77,2.18,7.23,4.76,9.91,8.25,4.51,5.88,4.64,12.69.34,18.71-2.09,2.92-4.78,5.2-7.75,7.17-5.28,3.5-11.08,5.88-17.08,7.81-1.13.36-2.27.7-3.37,1.03-.02.11-.04.15-.03.19.02.13.05.25.08.37,1.7,7.05,2.88,14.15,2.47,21.44-.19,3.47-.77,6.86-2.15,10.07-1.77,4.14-4.56,7.26-8.9,8.8-.81.29-1.66.48-2.5.72h-5.5c-.08-.03-.15-.09-.23-.1-3.28-.5-6.33-1.66-9.27-3.15-5.81-2.95-10.87-6.93-15.64-11.33-.65-.6-1.3-1.22-1.97-1.85-.19.17-.35.31-.5.45-3.1,2.97-6.34,5.77-9.84,8.26-3.99,2.84-8.19,5.31-12.9,6.76-1.28.39-2.6.64-3.89.96h-5.5c-.09-.04-.18-.11-.28-.13-4.37-.83-7.64-3.23-9.91-7-2.26-3.77-3.08-7.95-3.36-12.27-.38-6.02.38-11.95,1.61-17.83.3-1.43.64-2.86.97-4.33-.31-.1-.58-.2-.86-.28-6.04-1.77-11.91-3.97-17.37-7.17-3.71-2.17-7.09-4.72-9.73-8.17-4.45-5.81-4.59-12.6-.38-18.55,1.97-2.79,4.5-5,7.3-6.91,5.2-3.55,10.94-5.96,16.88-7.93,1.37-.45,2.75-.86,4.16-1.3-.04-.21-.07-.37-.11-.53-1.7-7.07-2.89-14.2-2.47-21.51.19-3.38.76-6.69,2.07-9.83,1.75-4.19,4.54-7.38,8.92-8.95.83-.3,1.7-.5,2.56-.74,1.83,0,3.67,0,5.5,0,.1.04.19.1.3.11,3.3.51,6.37,1.69,9.32,3.19,5.09,2.59,9.6,6,13.86,9.77,1.23,1.08,2.42,2.21,3.66,3.35.21-.2.41-.39.61-.58,3.13-3,6.41-5.81,9.96-8.31,4.04-2.85,8.29-5.3,13.07-6.71C99.79.49,100.97.27,102.12,0Zm-27.31,42.47c-4.17.19-8.56.39-12.94.58-.41.02-.64.19-.87.52-4.88,7.23-9.24,14.77-13.06,22.61-.19.38-.21.67-.02,1.07,3.84,7.86,8.19,15.42,13.12,22.65.16.24.52.46.8.48,2.62.17,5.23.33,7.85.42,6.1.2,12.19.05,18.28-.35.49-.03.8-.21,1.08-.63,4.84-7.18,9.15-14.67,12.97-22.44.23-.47.21-.84-.01-1.3-3.77-7.7-8.05-15.11-12.82-22.23-.39-.59-.82-.81-1.5-.84-4.22-.16-8.43-.34-12.87-.52Zm-4.4-21.39c-.08-.09-.14-.17-.22-.25-3.58-3.46-7.36-6.67-11.55-9.37-3.23-2.09-6.61-3.89-10.41-4.74-2.19-.49-4.4-.62-6.54.23-2.44.97-3.87,2.92-4.83,5.26-1.26,3.07-1.62,6.3-1.65,9.58-.06,6.03.95,11.92,2.38,17.75.1.41.29.45.63.37.7-.17,1.41-.33,2.12-.47,5.54-1.12,11.11-1.95,16.74-2.47.48-.04.79-.24,1.08-.64,2.35-3.11,4.7-6.23,7.13-9.27,1.62-2.03,3.38-3.95,5.12-5.98Zm.06,91.29c-.22-.24-.35-.4-.5-.56-4.18-4.56-8.04-9.39-11.62-14.43-.45-.63-.93-.85-1.66-.92-2.35-.23-4.71-.46-7.04-.84-3.82-.62-7.63-1.36-11.43-2.06-.36-.07-.52-.01-.62.39-1.61,6.67-2.76,13.4-2.26,20.3.2,2.71.7,5.37,1.9,7.84,1.89,3.87,5.26,5.58,9.51,4.94,2.62-.4,5.07-1.28,7.42-2.45,5.31-2.66,9.92-6.29,14.27-10.28.67-.62,1.33-1.25,2.03-1.91Zm46.38-26.76c.3-.09.59-.16.87-.25,5.84-1.72,11.51-3.84,16.72-7.05,2.76-1.7,5.31-3.65,7.21-6.32,2.48-3.49,2.48-7,.02-10.49-1.53-2.18-3.53-3.86-5.71-5.35-4.38-3-9.21-5.06-14.2-6.76-1.63-.55-3.27-1.05-4.93-1.57-.08.2-.13.31-.17.43-1.95,6.18-4.32,12.19-6.99,18.1-.12.26-.05.66.06.94,1.44,3.51,2.95,6.98,4.34,10.5,1,2.55,1.84,5.17,2.77,7.83ZM79.53,21.07c.19.22.34.4.49.57,4.2,4.58,8.06,9.43,11.66,14.49.42.59.88.8,1.56.86,1.7.15,3.4.29,5.08.56,4.49.74,8.98,1.55,13.46,2.34.37.06.52,0,.62-.39,1.61-6.65,2.76-13.35,2.26-20.24-.19-2.71-.68-5.37-1.88-7.84-1.91-3.94-5.27-5.65-9.6-4.98-3.03.47-5.82,1.59-8.5,3.03-4.95,2.67-9.3,6.16-13.41,9.96-.58.53-1.14,1.08-1.74,1.64Zm-46.34,26.79c-.12.02-.2.02-.28.04-5.49,1.59-10.85,3.53-15.85,6.35-2.91,1.64-5.64,3.53-7.84,6.08-1.37,1.59-2.43,3.35-2.69,5.48-.3,2.51.63,4.64,2.11,6.58,1.88,2.46,4.3,4.3,6.91,5.91,4.71,2.9,9.81,4.91,15.07,6.55.84.26,1.69.51,2.56.76.07-.19.11-.31.15-.43,1.95-6.16,4.31-12.15,6.97-18.04.12-.27.05-.7-.07-1-1.81-4.55-3.67-9.07-5.47-13.62-.6-1.52-1.05-3.09-1.58-4.66Zm79.12,45.6c-.74.16-1.4.3-2.06.44-5.72,1.19-11.48,2.06-17.3,2.59-.44.04-.78.14-1.07.55-3.66,5.17-7.6,10.12-11.89,14.79-.15.17-.3.34-.49.58,1.6,1.44,3.12,2.86,4.71,4.22,3.97,3.39,8.17,6.43,12.97,8.56,2.71,1.2,5.5,2.07,8.52,1.88,2.34-.15,4.31-1.07,5.72-2.94.69-.91,1.26-1.93,1.71-2.98,1.3-3.07,1.6-6.34,1.64-9.64.05-4.32-.49-8.59-1.33-12.82-.34-1.73-.74-3.44-1.13-5.24Zm-1.67-6.16c-1.63-4.42-3.19-8.64-4.77-12.92-2.96,5.13-5.84,10.11-8.81,15.25,4.51-.77,8.92-1.53,13.58-2.33Zm-13.58-43.48c2.98,5.17,5.85,10.13,8.74,15.14,1.74-4.15,3.33-8.36,4.71-12.83-4.53-.78-8.95-1.54-13.45-2.31Zm-57.68,43.36c4.57,1.01,8.98,1.79,13.45,2.31-2.92-5.05-5.78-10.02-8.72-15.12-1.58,4.29-3.14,8.51-4.73,12.8Zm13.53-43.36c-4.55.78-8.96,1.54-13.57,2.33,1.63,4.41,3.19,8.63,4.77,12.92,2.94-5.1,5.81-10.06,8.8-15.25Zm30.91-7.63c-2.95-3.55-5.83-7-8.75-10.51-3.18,3.46-6.05,6.92-8.76,10.51h17.52Zm-8.83,71.68c3.02-3.63,5.88-7.07,8.82-10.61h-17.65c2.95,3.55,5.82,6.99,8.83,10.61Z"/>
      <path class="cls-1" d="m61.65,66.65c.01-7.38,5.97-13.33,13.34-13.33,7.39,0,13.38,6.01,13.34,13.4-.04,7.38-6.01,13.33-13.37,13.3-7.37-.02-13.32-6-13.31-13.37Z"/>
    </g>
  </g>
</svg>