<?xml version="1.0" encoding="UTF-8"?>
<svg id="Camada_2" data-name="Camada 2" xmlns="http://www.w3.org/2000/svg" viewBox="0 0 150 77.25">
  <defs>
    <style>
      .cls-1 {
        fill: #fff;
      }
    </style>
  </defs>
  <g id="Camada_1-2" data-name="Camada 1">
    <g>
      <path class="cls-1" d="m118.03,0c-.02.2-.06.4-.06.59,0,4.36,0,8.72,0,13.07,0,.57-.02.56-.6.53-1.18-.06-2.37-.1-3.55-.16-.95-.05-1.65.32-1.98,1.22-.46,1.26-.91,2.52-1.26,3.81-1.35,4.9-2.64,9.82-4.01,14.72-.79,2.85-1.68,5.66-2.87,8.37-.87,1.99-1.95,3.86-3.51,5.41-.52.52-.94,1.13-1.4,1.7-.09.11-.14.24-.27.46.55-.04.99-.07,1.58-.12-.15.39-.21.72-.39.97-.54.77-1.06,1.56-1.7,2.24-2.43,2.55-4.9,5.07-7.35,7.6-.26.27-.56.51-.78.81-.49.67-1.16,1.03-1.95,1.17-1.51.27-3,.6-4.52.77-.78.09-1.62-.04-2.39-.23-1.01-.24-1.51-1.07-1.28-2.08.37-1.6,1.02-3.06,2.43-4.06,2.53-1.78,4.81-3.88,7.19-5.85,2.01-1.67,4.1-3.24,6.31-4.65.94-.6,1.8-1.36,2.58-2.16.47-.48.83-1.13,1.04-1.76.52-1.52,1.17-2.98,2.01-4.35,1.21-1.98,1.93-4.15,2.6-6.34,1.62-5.3,2.68-10.73,3.9-16.12.11-.49.25-.98.33-1.47.02-.16-.06-.39-.18-.5-.67-.59-1.37-1.15-2.07-1.72-1.49-1.22-2.23-2.77-2.17-4.72.06-2.17.38-4.3.82-6.43.05-.24.1-.48.15-.72,4.46,0,8.91,0,13.37,0Z"/>
      <path class="cls-1" d="m0,41.82c6.3-3.84,12.59-7.69,18.9-11.51,2.99-1.81,6.01-3.56,9.02-5.33.38-.23.8-.41,1.19-.62.3-.16.58-.13.85.07.73.57,1.3,1.27,1.64,2.14.06.15.03.4-.07.51-.3.36-.61.75-.99,1.01-1.95,1.31-3.91,2.62-5.91,3.86-5.71,3.55-11.45,7.07-17.17,10.6-.66.41-1.33.82-1.98,1.24-.77.5-.88.95-.19,1.54,1.08.93,2.2,1.83,3.39,2.61,3.53,2.31,7.11,4.53,10.65,6.82,3.37,2.18,6.72,4.39,10.06,6.62.53.36,1.01.82,1.45,1.29.52.56.57.93.13,1.55-.38.54-.86,1-1.33,1.47-.07.07-.33.06-.45-.01-1.43-.81-2.86-1.62-4.27-2.48-4.19-2.53-8.37-5.07-12.54-7.64-4.06-2.5-8.09-5.03-12.14-7.55-.09-.05-.18-.1-.26-.15,0-2.02,0-4.04,0-6.06Z"/>
      <path class="cls-1" d="m72.19,43.88c-.34.95-.66,1.85-.7,2.84-.07,1.71.75,2.76,2.45,3.06,1.31.23,2.63.14,3.92-.11,1.77-.35,3.51-.85,5.17-1.58,2.42-1.07,4.45-2.66,6.28-4.53.57-.59,1.17-1.16,1.82-1.66.85-.64,1.24-.41,1.39.65.27,1.93-.29,3.56-1.65,4.93-1.11,1.12-2.23,2.22-3.35,3.33-.67.66-1.38,1.28-2.02,1.97-1.67,1.81-3.68,3.2-5.6,4.71-4.84,3.82-9.72,7.6-14.58,11.4-3.41,2.67-6.82,5.35-10.24,8.01-.25.2-.63.33-.95.33-4.24.02-8.48,0-12.72.02-.4,0-.51-.11-.5-.51.02-2.6.01-5.19,0-7.79,0-.42.13-.68.46-.94,3.2-2.49,6.39-5,9.59-7.51,5.05-3.96,10.1-7.91,15.15-11.86,1.83-1.43,3.67-2.86,5.5-4.29.19-.15.36-.31.54-.47Z"/>
      <path class="cls-1" d="m56.24,77.21c7.82-6.15,15.53-12.21,23.25-18.28.03.01.05.02.08.03-.04.1-.08.21-.11.31-.29.85-.58,1.69-.41,2.61.12.69.5,1.18,1.12,1.5,1.14.59,2.36.63,3.6.51,1.96-.19,3.9-.56,5.74-1.27,3.01-1.17,5.69-2.88,7.94-5.22.43-.45.87-.88,1.31-1.31,0,0,.03,0,.13,0,0,.99.01,1.99,0,3-.03,2.31-.93,4.34-2.03,6.31-1.37,2.45-3.08,4.67-4.91,6.8-1.29,1.5-2.6,2.98-3.88,4.49-.33.38-.68.55-1.19.54-10.05-.02-20.11-.01-30.16-.02-.11,0-.22-.01-.45-.02Z"/>
      <path class="cls-1" d="m40.98,66.98c-.01-.22-.03-.36-.03-.49,0-4.44,0-8.89-.01-13.33,0-.38.12-.64.42-.89,4.09-3.35,8.17-6.72,12.25-10.07.88-.72,1.77-1.44,2.66-2.16.07-.06.16-.09.25-.15-.04.46-.1.88-.11,1.31-.03,1.15.5,1.94,1.58,2.38,1.19.48,2.44.46,3.68.36.83-.07,1.66-.24,2.49-.35.24-.03.5-.06.73-.02,1.04.15,1.97-.16,2.89-.58,2.05-.94,3.76-2.35,5.47-3.78.9-.76,1.87-1.45,2.81-2.16.11-.08.26-.12.4-.16.28-.07.45.07.4.34-.1.63-.22,1.25-.37,1.86-.03.13-.19.24-.32.34-5.46,4.28-10.92,8.55-16.38,12.83-5.7,4.46-11.39,8.93-17.09,13.39-.45.36-.9.72-1.36,1.08-.1.08-.2.14-.37.26Z"/>
      <path class="cls-1" d="m146,45.23c-.59-.45-1.09-.89-1.64-1.26-4.26-2.8-8.52-5.59-12.8-8.37-3.38-2.2-6.78-4.35-10.15-6.56-.72-.47-1.38-1.05-2-1.65-.72-.69-.72-1.16-.15-1.98.86-1.22,1.31-1.34,2.62-.56,4.11,2.44,8.22,4.87,12.31,7.35,5.16,3.13,10.29,6.31,15.44,9.46.25.15.36.33.36.63,0,1.76,0,3.52,0,5.28,0,.29-.1.48-.35.64-8.19,5.13-16.36,10.27-24.56,15.38-1.17.73-2.43,1.33-3.69,1.9-.72.33-1,.19-1.49-.43-.28-.35-.54-.72-.77-1.1-.25-.41-.25-.85.11-1.19.61-.57,1.21-1.17,1.9-1.63,2.62-1.72,5.26-3.4,7.91-5.08,5.23-3.32,10.46-6.64,15.69-9.96.4-.25.78-.54,1.24-.87Z"/>
      <path class="cls-1" d="m75.11,49.27c-.62-.17-1.27-.27-1.85-.52-.69-.29-1.04-.87-1.04-1.65-.01-1.1.35-2.09.77-3.07.36-.84.87-1.53,1.63-2.07.85-.6,1.64-1.28,2.46-1.92.16-.12.32-.27.5-.34,1.71-.73,3.12-1.9,4.59-3,2.59-1.95,5.18-3.93,7.82-5.81.97-.69,2.07-1.2,3.15-1.72.44-.21.97-.32,1.46-.32,1.16-.02,2,.98,1.67,2.09-.26.87-.69,1.71-1.17,2.48-1.36,2.18-3.1,4.05-4.88,5.89-2.63,2.73-5.3,5.43-7.96,8.14-.16.16-.36.3-.57.38-2.1.84-4.28,1.3-6.54,1.33,0,.04-.02.08-.03.11Z"/>
      <path class="cls-1" d="m60.51,43.41c-.67-.11-1.39-.16-2.05-.36-1.08-.34-1.58-1.19-1.44-2.31.13-.98.49-1.8,1.33-2.46,3.93-3.04,7.79-6.17,11.74-9.19,1.8-1.37,3.72-2.58,5.64-3.79.61-.39,1.34-.62,2.04-.82.74-.22,1.4.07,1.95.57.49.45.41,1.02.25,1.57-.34,1.14-.99,2.13-1.75,3.01-1.56,1.8-3.11,3.61-4.81,5.28-2.19,2.16-4.5,4.19-6.79,6.25-.64.58-1.35,1.09-2.07,1.56-.32.21-.76.28-1.15.34-.94.14-1.89.24-2.88.36Z"/>
    </g>
  </g>
</svg>