<svg xmlns="http://www.w3.org/2000/svg" viewBox="0 0 1440 320"><path fill="#f8f8ff" fill-opacity="1" d="M0,128L0,128L102.9,128L102.9,320L205.7,320L205.7,128L308.6,128L308.6,192L411.4,192L411.4,224L514.3,224L514.3,160L617.1,160L617.1,224L720,224L720,288L822.9,288L822.9,160L925.7,160L925.7,96L1028.6,96L1028.6,32L1131.4,32L1131.4,128L1234.3,128L1234.3,224L1337.1,224L1337.1,192L1440,192L1440,0L1337.1,0L1337.1,0L1234.3,0L1234.3,0L1131.4,0L1131.4,0L1028.6,0L1028.6,0L925.7,0L925.7,0L822.9,0L822.9,0L720,0L720,0L617.1,0L617.1,0L514.3,0L514.3,0L411.4,0L411.4,0L308.6,0L308.6,0L205.7,0L205.7,0L102.9,0L102.9,0L0,0L0,0Z"></path></svg>