<?xml version="1.0" encoding="utf-8"?>
<!-- Generator: Adobe Illustrator 27.4.1, SVG Export Plug-In . SVG Version: 6.00 Build 0)  -->
<svg version="1.1" id="Camada_1" xmlns="http://www.w3.org/2000/svg" xmlns:xlink="http://www.w3.org/1999/xlink" x="0px" y="0px"
	 viewBox="0 0 1440 101" style="enable-background:new 0 0 1440 101;" xml:space="preserve">
<style type="text/css">
	.st0{fill:#19013b;}
</style>
<path class="st0" d="M0,15.4l40,8.1c40,7.8,120,24.3,200,32.1c80,8.1,160,8.1,240,4.1c80-4.3,160-11.8,240-8.1
	c80,3.8,160,20.3,240,20.1c80,0.2,160-16.3,240-28.2c80-12.3,160-19.8,200-24.1l40-4V-81h-40c-40,0-120,0-200,0s-160,0-240,0
	s-160,0-240,0s-160,0-240,0s-160,0-240,0S80-81,40-81H0V15.4z"/>
</svg>
