<?xml version="1.0" standalone="no"?><svg xmlns="http://www.w3.org/2000/svg" viewBox="0 0 1440 320"><path fill="#f8f8ff" fill-opacity="1" d="M0,64L0,192L102.9,192L102.9,224L205.7,224L205.7,160L308.6,160L308.6,288L411.4,288L411.4,160L514.3,160L514.3,64L617.1,64L617.1,160L720,160L720,224L822.9,224L822.9,160L925.7,160L925.7,64L1028.6,64L1028.6,192L1131.4,192L1131.4,192L1234.3,192L1234.3,32L1337.1,32L1337.1,64L1440,64L1440,320L1337.1,320L1337.1,320L1234.3,320L1234.3,320L1131.4,320L1131.4,320L1028.6,320L1028.6,320L925.7,320L925.7,320L822.9,320L822.9,320L720,320L720,320L617.1,320L617.1,320L514.3,320L514.3,320L411.4,320L411.4,320L308.6,320L308.6,320L205.7,320L205.7,320L102.9,320L102.9,320L0,320L0,320Z"></path></svg>