<?xml version="1.0" encoding="utf-8"?>
<!-- Generator: Adobe Illustrator 27.4.1, SVG Export Plug-In . SVG Version: 6.00 Build 0)  -->
<svg version="1.1" id="Camada_1" xmlns="http://www.w3.org/2000/svg" xmlns:xlink="http://www.w3.org/1999/xlink" x="0px" y="0px"
	 viewBox="0 0 1440 197" style="enable-background:new 0 0 1440 197;" xml:space="preserve">
<style type="text/css">
	.st0{fill:#19013b;}
</style>
<path class="st0" d="M0,5l40,10.7C80,26,160,48,240,58.3C320,69,400,69,480,63.7C560,58,640,48,720,53s160,27,240,26.7
	c80,0.3,160-21.7,240-37.4c80-16.3,160-26.3,200-32l40-5.3v192h-40c-40,0-120,0-200,0s-160,0-240,0s-160,0-240,0s-160,0-240,0
	s-160,0-240,0s-160,0-200,0H0V5z"/>
</svg>
